<svg xmlns="http://www.w3.org/2000/svg" width="24" height="24" viewBox="0 0 24 24" class="w-6 h-6 mr-2 whitespace-normal chip__sprite text-midnight sprite-vue sprite-vue--category sprite-vue--communication-and-social-skills"><path fill-rule="evenodd" d="M3.7 7.69C3.7 3.45 8.25 0 13.84 0S24 3.45 24 7.69a6.41 6.41 0 0 1-1.69 4.19L22 16.32 18.14 15c.088.367.139.743.15 1.12 0 3.87-4.15 7-9.15 7a11.79 11.79 0 0 1-3.46-.52l-3.94 1.34-.28-4A5.79 5.79 0 0 1 0 16.16c0-2.43 1.64-4.63 4.3-5.89a6.06 6.06 0 0 1-.6-2.58zM5.91 21.1a10.31 10.31 0 0 0 3.23.52c4.22 0 7.65-2.45 7.65-5.51a3.931 3.931 0 0 0-.17-1.08c-.913.201-1.845.302-2.78.3a11 11 0 0 1-8.76-3.83c-2.21 1-3.58 2.74-3.58 4.61a4.41 4.41 0 0 0 1.24 3l.18.19.18 2.6 2.57-.9zm14.98-9.84.17-.19a5 5 0 0 0 1.41-3.38c0-3.41-3.87-6.19-8.63-6.19S5.16 4.32 5.16 7.73s3.88 6.19 8.64 6.19c1.237.007 2.467-.19 3.64-.58l.24-.08 3 1zm-1.48-3.59a1 1 0 1 1-2 0 1 1 0 0 1 2 0zm-5.5 1a1 1 0 1 0 0-2 1 1 0 0 0 0 2zM8.864 6.839a1 1 0 1 1 1.111 1.663 1 1 0 0 1-1.11-1.663z" clip-rule="evenodd"></path></svg>