<svg xmlns="http://www.w3.org/2000/svg" width="24" height="24" viewBox="0 0 24 24" class="w-6 h-6 mr-2 whitespace-normal chip__sprite text-midnight sprite-vue sprite-vue--category sprite-vue--creativity"><clipPath id="a"><path d="M0 0h24v24H0z"></path></clipPath><g clip-path="url(#a)"><path fill-rule="evenodd" d="M0 0h8.67v8.67H0zm1.53 7.2H7.2V1.53H1.53zM0 12.5h3.58V14H0zm19.42-1.77-6.68 6.68 6.64 6.64 3.86-3.86-2.78-2.78 2.82-2.82zm1.7 9.46-1.74 1.74-4.52-4.52 4.56-4.56 1.74 1.74-2.82 2.82zM20.064 1.382A4.5 4.5 0 0 1 23.24.06H24v1.49h-.75a3 3 0 0 0-3 3 4.51 4.51 0 0 1-4.5 4.5 3 3 0 0 0-3 3 4.5 4.5 0 0 1-4.5 4.5 3 3 0 0 0-3 3 4.51 4.51 0 0 1-4.5 4.5H0v-1.5h.75a3 3 0 0 0 3-3 4.51 4.51 0 0 1 4.5-4.5 3 3 0 0 0 3-3 4.5 4.5 0 0 1 4.5-4.49 3 3 0 0 0 3-3 4.5 4.5 0 0 1 1.315-3.178zM10.32 19.19a2.44 2.44 0 1 0 2.43 2.43 2.43 2.43 0 0 0-2.43-2.43zm0 3.37a.94.94 0 1 1-.02-1.88.94.94 0 0 1 .02 1.88zM15.06 4.494A2.41 2.41 0 1 1 12.381.486a2.41 2.41 0 0 1 2.678 4.008zm-.833-2.76a.91.91 0 1 0-1.011 1.512.91.91 0 0 0 1.01-1.513z" clip-rule="evenodd"></path></g></svg>