<svg xmlns="http://www.w3.org/2000/svg" width="24" height="24" viewBox="0 0 24 24" class="w-6 h-6 mr-2 whitespace-normal chip__sprite text-midnight sprite-vue sprite-vue--category sprite-vue--economics"><path d="M24 1.37 23.09.18l-2.51 1.9A11.46 11.46 0 0 0 18.17 0l-.81 1.26a9.87 9.87 0 0 1 2 1.73L18.08 4a8.29 8.29 0 0 0-14.4 5.52A8 8 0 0 0 5 13.9l-1.29 1a9.39 9.39 0 0 1-1.15-2.36L1.1 13a11.27 11.27 0 0 0 1.37 2.81L0 17.67l.91 1.19L3.4 17a11.43 11.43 0 0 0 7.06 3.76c.21 0 .42 0 .63.05v1.72H5.82V24h12.05v-1.5h-5.28v-1.68A11.4 11.4 0 0 0 23.29 11a11.24 11.24 0 0 0-1.81-7.74zM12 2.79a6.73 6.73 0 1 1-6.82 6.73A6.77 6.77 0 0 1 12 2.79zm9.83 8a9.941 9.941 0 0 1-17.24 5.28l1.3-1a8.29 8.29 0 0 0 14.37-5.55A8.15 8.15 0 0 0 19 5.16l1.3-1a9.78 9.78 0 0 1 1.5 6.66z"></path></svg>