<svg xmlns="http://www.w3.org/2000/svg" width="24" height="24" viewBox="0 0 24 24" class="w-6 h-6 mr-2 whitespace-normal chip__sprite text-midnight sprite-vue sprite-vue--category sprite-vue--technology-and-the-future"><clipPath id="a"><path d="M0 0h24v24H0z"></path></clipPath><g clip-path="url(#a)"><path d="M15.07 3.06A3.08 3.08 0 1 0 11.2 6v18h1.5V6a3.06 3.06 0 0 0 2.37-2.94zM12 4.63a1.57 1.57 0 1 1 0-3.14 1.57 1.57 0 0 1 0 3.14zM3.07 12.19a3.05 3.05 0 0 0-.75 6V24h1.5v-5.79a3.05 3.05 0 0 0-.75-6zm0 4.63a1.57 1.57 0 1 1 .02-3.14 1.57 1.57 0 0 1-.02 3.14z"></path><path d="M6.09 5.92A3.09 3.09 0 1 0 6 7.46a3 3 0 0 1 1.56 2.73V24H9V10.19a5.15 5.15 0 0 0-1.28-3.34 3.69 3.69 0 0 0-1.63-.93zm-3 2.13a1.57 1.57 0 1 1 .584-.117 1.57 1.57 0 0 1-.604.117zM20.92 9.55a3.07 3.07 0 1 0-3-3.63 3.78 3.78 0 0 0-1.64.93A5.18 5.18 0 0 0 15 10.19V24h1.5V10.19A3 3 0 0 1 18 7.46a3.07 3.07 0 0 0 2.92 2.09zm0-4.63a1.57 1.57 0 1 1-1.57 1.56 1.56 1.56 0 0 1 1.57-1.56z"></path><path d="M20.92 12.19a3.05 3.05 0 0 0-.75 6V24h1.5v-5.79a3.05 3.05 0 0 0-.75-6zm0 4.63a1.57 1.57 0 1 1 0-3.14 1.57 1.57 0 0 1 0 3.14z"></path></g></svg>