<svg xmlns="http://www.w3.org/2000/svg" width="24" height="24" viewBox="0 0 24 24" class="w-6 h-6 mr-2 whitespace-normal chip__sprite text-midnight sprite-vue sprite-vue--category sprite-vue--management-and-leadership"><clipPath id="a"><path d="M0 0h24v24H0z"></path></clipPath><g clip-path="url(#a)"><path d="m19.89 15.51-4.77-8.4a4.19 4.19 0 0 0 1.13-2.86 4.25 4.25 0 1 0-7.32 2.93l-4.45 8.34h-.23a4.25 4.25 0 1 0 4.12 5.23h7.26a4.239 4.239 0 0 0 8.33-.438 4.24 4.24 0 0 0-4.07-4.782zM12 1.5A2.75 2.75 0 1 1 12 7a2.75 2.75 0 0 1 0-5.5zm-7.75 21a2.75 2.75 0 1 1 0-5.5 2.75 2.75 0 0 1 0 5.5zm11.3-3.27h-7.1A4.27 4.27 0 0 0 6 15.88l4.17-7.82A4.23 4.23 0 0 0 12 8.5a4.1 4.1 0 0 0 1.91-.5l4.4 7.75a4.23 4.23 0 0 0-2.76 3.48zm4.2 3.27a2.75 2.75 0 1 1 0-5.5 2.75 2.75 0 0 1 0 5.5z"></path></g></svg>