<svg xmlns="http://www.w3.org/2000/svg" width="24" height="24" viewBox="0 0 24 24" class="w-6 h-6 mr-2 whitespace-normal chip__sprite text-midnight sprite-vue sprite-vue--category sprite-vue--biography-and-memoir"><clipPath id="a"><path d="M0 0h24v24H0z"></path></clipPath><g clip-path="url(#a)"><path d="M23.21.05c-5.35.3-7.42 2.68-7.5 2.78l-.17.17-.06 1.09-1.08.06-.2.19a5.75 5.75 0 0 0-1.31 7.24l-1.84 2.19H2.79v2.59a3 3 0 0 0-2.79 3V24h15.89v-4.64a3 3 0 0 0-3-3v-2.47l1.27-1.51c.393.07.791.107 1.19.11A8 8 0 0 0 19.89 11l.3-.24V9.71l.81-.07.15-.1C23.9 7.65 24 1.49 24 .8V0zM4.29 15.29h7.13v1.07H4.29zm10.1 4.07v3.14H1.5v-3.14a1.5 1.5 0 0 1 1.5-1.5h9.89a1.5 1.5 0 0 1 1.5 1.5zM20.44 8.2l-1.81.23v1.62a6.78 6.78 0 0 1-3.3.93L21 4.26l-1.15-1-5.93 7a4.15 4.15 0 0 1 1.1-4.7l1.85-.11.13-1.8a9.71 9.71 0 0 1 5.46-2c-.1 1.93-.58 5.35-2.02 6.55z"></path></g></svg>