<svg xmlns="http://www.w3.org/2000/svg" width="24" height="24" viewBox="0 0 24 24" class="w-6 h-6 mr-2 whitespace-normal chip__sprite text-midnight sprite-vue sprite-vue--category sprite-vue--money-and-investments"><clipPath id="a"><path d="M0 0h24v24H0z"></path></clipPath><g clip-path="url(#a)"><path d="M24 11.75h-1.5a1.24 1.24 0 0 1-.6 1c-.6-4-4.81-7-9.91-7-1.24 0-2.474.185-3.66.55A4.22 4.22 0 0 0 5.2 4.66h-.77v3.86a6.38 6.38 0 0 0-1.76 2.37H0v5.94h2.78a8.22 8.22 0 0 0 2.38 2.77l-.37 1a2.47 2.47 0 0 0 .08 1.94 2.53 2.53 0 0 0 4.67-.19l.29-.77c1.44.25 2.91.25 4.35 0l.28.77A2.55 2.55 0 0 0 16.84 24c.297.001.592-.053.87-.16a2.483 2.483 0 0 0 1.43-1.32 2.53 2.53 0 0 0 .08-1.93l-.37-1A7.5 7.5 0 0 0 22 14.41a2.78 2.78 0 0 0 2-2.66zm-6.48 6.94L17 19l.77 2.1a1 1 0 0 1 0 .78 1 1 0 0 1-.59.54 1.001 1.001 0 0 1-1.32-.61l-.74-2-.64.15a11 11 0 0 1-5 0l-.65-.15-.74 2a1 1 0 0 1-1.32.61 1 1 0 0 1-.58-.53 1 1 0 0 1 0-.79L7 19l-.5-.33a6.77 6.77 0 0 1-2.53-2.9l-.2-.46H1.5v-2.92h2.18l.19-.48a5.19 5.19 0 0 1 1.77-2.45l.28-.22V6.31a2.24 2.24 0 0 1 1.38 1.2l.28.66.67-.25A10.42 10.42 0 0 1 12 7.25c4.68 0 8.49 2.92 8.49 6.51a6.002 6.002 0 0 1-2.96 4.93z"></path><path d="m9.84 8.83.2 1.49c1.353-.19 2.727-.19 4.08 0l.22-1.49a17 17 0 0 0-4.5 0zM13.87 4.89a2.45 2.45 0 1 0 .02-4.9 2.45 2.45 0 0 0-.02 4.9zm0-3.39a.95.95 0 1 1-.94 1 .94.94 0 0 1 .94-1z"></path></g></svg>