<svg xmlns="http://www.w3.org/2000/svg" width="25" height="25" viewBox="0 0 25 25" class="w-6 h-6 mr-2 whitespace-normal chip__sprite text-midnight sprite-vue sprite-vue--category sprite-vue--nature-and-environment"><path d="M24 1.74V1h-.7C22.75 1 10.69.7 5.47 5.92.71 10.68 2.22 19.32 2.64 21.3L0 23.94 1.06 25l2.64-2.64c1.77.367 3.572.555 5.38.56 3.3 0 7.29-.68 10-3.39C24.3 14.31 24 2.25 24 1.74zm-6 16.73c-3.6 3.63-10.18 3.05-13 2.6l4.25-4.25h6v-1.5h-4.51l3.73-3.73h4.88v-1.5H16l2.86-2.86-1.09-1.06L14.91 9V5.65h-1.5v4.88l-3.73 3.73V9.71h-1.5v6L3.93 20c-.45-2.82-1-9.4 2.61-13 4.07-4.07 13.3-4.45 16-4.48-.07 2.64-.45 11.88-4.54 15.95z"></path></svg>