<svg xmlns="http://www.w3.org/2000/svg" width="24" height="26" viewBox="0 0 24 26" class="w-6 h-6 mr-2 whitespace-normal chip__sprite text-midnight sprite-vue sprite-vue--category sprite-vue--parenting"><g fill-rule="evenodd" clip-rule="evenodd"><path d="M12.958 7.25a2.465 2.465 0 0 0-3.508 0l-7.222 7.316a2.568 2.568 0 0 0 0 3.58l4.563 4.623a2.468 2.468 0 0 0 3.51 0l7.222-7.315c.97-.983.97-2.597 0-3.58zM8.382 6.198a3.965 3.965 0 0 1 5.643 0l4.566 4.623a4.068 4.068 0 0 1 0 5.687l-7.222 7.316a3.968 3.968 0 0 1-5.645 0L1.16 19.199a4.068 4.068 0 0 1 0-5.686z"></path><path d="m14.566 1.612 8.768 8.88-3.59 3.634-8.768-8.88zm-1.482 3.635 6.66 6.745 1.482-1.5-6.66-6.745z"></path><path d="M19.722 1.734a2.494 2.494 0 0 1 3.547.01L22.2 2.796a.994.994 0 0 0-1.421 0l-.013.013-.007.007a.682.682 0 0 0-.21.366l-.001.001c-.109.592-.476 1.041-.996 1.223a1.598 1.598 0 0 1-1.433-.21l-.002-.002c-.493-.343-.935-.304-1.293-.174a2.078 2.078 0 0 0-.613.357l.002-.002.002-.002-.513-.547a70.95 70.95 0 0 1-.513-.547l.002-.002.003-.002.007-.007.02-.019.066-.055a3.576 3.576 0 0 1 1.025-.583c.694-.253 1.673-.337 2.663.353l-.43.615.428-.617a.16.16 0 0 0 .075.03l.005-.011a.31.31 0 0 0 .02-.07l.737.136-.738-.134a2.17 2.17 0 0 1 .376-.86 2.474 2.474 0 0 1 .273-.32z"></path><path d="M22.202 4.263a1.048 1.048 0 0 0 0-1.466l1.067-1.054a2.548 2.548 0 0 1-.306 3.841 2.144 2.144 0 0 1-.858.385l-.14-.737.14.737a.277.277 0 0 0-.074.025v-.005.001l-.002.003-.002.003.004-.002a.096.096 0 0 0 0 .026c.003.02.012.046.03.073l-.62.421m0 0 .62-.42c.677.996.593 1.979.347 2.675a3.641 3.641 0 0 1-.63 1.1l-.018.021-.006.008-.003.002-.001.002-.554-.506a79.968 79.968 0 0 0-.553-.506l-.001.001.021-.026a2.142 2.142 0 0 0 .33-.597c.132-.37.17-.827-.173-1.332a1.625 1.625 0 0 1-.207-1.433c.177-.518.618-.895 1.213-1.008a.657.657 0 0 0 .25-.12.964.964 0 0 0 .089-.074l.017-.017-.004.004h.001l.002-.003.002-.002-.001.001.007-.008.013-.013M16.718 11.027H5.41v-1.5h11.308z"></path></g></svg>